<!-- <svg width="85" height="63" viewBox="0 0 85 63" fill="none" xmlns="http://www.w3.org/2000/svg">
<path fill-rule="evenodd" clip-rule="evenodd" d="M27.017 30.3135C27.0057 30.5602 27 30.8085 27 31.0581C27 39.9267 34.1894 47.1161 43.0581 47.1161C51.9267 47.1161 59.1161 39.9267 59.1161 31.0581C59.1161 30.8026 59.1102 30.5485 59.0984 30.2959C60.699 30.0511 62.2954 29.7696 63.8864 29.4515L64.0532 29.4181C64.0949 29.9593 64.1161 30.5062 64.1161 31.0581C64.1161 42.6881 54.6881 52.1161 43.0581 52.1161C31.428 52.1161 22 42.6881 22 31.0581C22 30.514 22.0206 29.9747 22.0612 29.441L22.1136 29.4515C23.7428 29.7773 25.3777 30.0646 27.017 30.3135ZM52.4613 18.0397C49.8183 16.1273 46.5698 15 43.0581 15C39.54 15 36.2862 16.1313 33.6406 18.05C31.4938 17.834 29.3526 17.5435 27.221 17.1786C31.0806 12.7781 36.7449 10 43.0581 10C49.3629 10 55.0207 12.7708 58.8799 17.1612C56.7487 17.5285 54.6078 17.8214 52.4613 18.0397ZM68.9854 28.4316C69.0719 29.2954 69.1161 30.1716 69.1161 31.0581C69.1161 45.4495 57.4495 57.1161 43.0581 57.1161C28.6666 57.1161 17 45.4495 17 31.0581C17 30.1793 17.0435 29.3108 17.1284 28.4544L12.2051 27.4697C12.0696 28.6471 12 29.8444 12 31.0581C12 48.211 25.9052 62.1161 43.0581 62.1161C60.211 62.1161 74.1161 48.211 74.1161 31.0581C74.1161 29.8366 74.0456 28.6317 73.9085 27.447L68.9854 28.4316ZM69.6705 15.0372L64.3929 16.0927C59.6785 9.38418 51.8803 5 43.0581 5C34.2269 5 26.4218 9.39306 21.7089 16.1131L16.4331 15.0579C21.867 6.03506 31.7578 0 43.0581 0C54.3497 0 64.234 6.02581 69.6705 15.0372Z" fill="black"/>
<mask id="path-2-inside-1" fill="white">
<path d="M42.5 28.9252C16.5458 30.2312 0 14 0 14C0 14 26 22.9738 42.5 22.9738C59 22.9738 85 14 85 14C85 14 68.4542 27.6193 42.5 28.9252Z"/>
</mask>
<path d="M0 14L5.87269 -3.01504L-12.6052 26.8495L0 14ZM42.5 28.9252L41.5954 10.948L42.5 28.9252ZM85 14L96.4394 27.8975L79.1273 -3.01504L85 14ZM0 14C-12.6052 26.8495 -12.5999 26.8546 -12.5946 26.8598C-12.5928 26.8617 -12.5874 26.8669 -12.5837 26.8706C-12.5762 26.8779 -12.5685 26.8854 -12.5605 26.8932C-12.5445 26.9088 -12.5274 26.9254 -12.5092 26.943C-12.4729 26.9782 -12.4321 27.0174 -12.387 27.0605C-12.2969 27.1467 -12.1892 27.2484 -12.0642 27.3646C-11.8144 27.5968 -11.4949 27.8874 -11.1073 28.2273C-10.3332 28.9063 -9.28165 29.7873 -7.96614 30.7967C-5.34553 32.8073 -1.61454 35.3754 3.11693 37.872C12.5592 42.8544 26.4009 47.7581 43.4046 46.9025L41.5954 10.948C32.6449 11.3983 25.2366 8.83942 19.9174 6.03267C17.2682 4.63475 15.2406 3.22667 13.9478 2.23478C13.3066 1.74283 12.8627 1.366 12.6306 1.16243C12.5151 1.06107 12.4538 1.00422 12.4485 0.999363C12.446 0.996981 12.4576 1.00773 12.4836 1.03256C12.4966 1.04498 12.5132 1.06094 12.5334 1.08055C12.5436 1.09035 12.5546 1.10108 12.5665 1.11273C12.5725 1.11855 12.5787 1.12461 12.5852 1.13091C12.5884 1.13405 12.5934 1.13895 12.595 1.14052C12.6 1.14548 12.6052 1.15049 0 14ZM43.4046 46.9025C59.3275 46.1013 72.3155 41.5302 81.3171 37.1785C85.8337 34.9951 89.4176 32.8333 91.9552 31.151C93.2269 30.3079 94.2446 29.5794 94.9945 29.0205C95.3698 28.7409 95.6788 28.503 95.92 28.3138C96.0406 28.2192 96.1443 28.1366 96.2309 28.067C96.2742 28.0321 96.3133 28.0005 96.348 27.9723C96.3654 27.9581 96.3817 27.9448 96.3969 27.9323C96.4045 27.9261 96.4119 27.9201 96.419 27.9143C96.4225 27.9114 96.4276 27.9072 96.4294 27.9057C96.4344 27.9016 96.4394 27.8975 85 14C73.5606 0.102497 73.5655 0.0985097 73.5703 0.0945756C73.5718 0.0933319 73.5765 0.0894438 73.5795 0.0869551C73.5856 0.0819751 73.5914 0.077195 73.597 0.0726136C73.6082 0.0634509 73.6185 0.055082 73.6278 0.0474955C73.6465 0.0323231 73.6614 0.0202757 73.6726 0.0112606C73.695 -0.00676378 73.7026 -0.0126931 73.6957 -0.00726687C73.6818 0.00363418 73.6101 0.0596753 73.4822 0.154983C73.2258 0.346025 72.7482 0.691717 72.0631 1.14588C70.6873 2.05798 68.5127 3.38259 65.6485 4.7672C59.8887 7.55166 51.6267 10.4432 41.5954 10.948L43.4046 46.9025ZM85 14C79.1273 -3.01504 79.1288 -3.01557 79.1303 -3.01606C79.1306 -3.01618 79.1319 -3.01664 79.1326 -3.01688C79.134 -3.01736 79.135 -3.0177 79.1356 -3.01791C79.1369 -3.01834 79.1366 -3.01823 79.1347 -3.01759C79.131 -3.01633 79.1212 -3.01297 79.1055 -3.00758C79.0739 -2.99681 79.0185 -2.97794 78.9404 -2.95151C78.7839 -2.89864 78.5366 -2.81564 78.207 -2.7068C77.5472 -2.48895 76.561 -2.16874 75.3165 -1.78027C72.8181 -1.00046 69.3266 0.039393 65.3753 1.07466C57.0052 3.26771 48.2826 4.97383 42.5 4.97383V40.9738C53.2174 40.9738 65.7448 38.193 74.4997 35.8992C79.1109 34.691 83.1506 33.4874 86.0429 32.5846C87.4937 32.1318 88.6676 31.7509 89.4942 31.478C89.9077 31.3414 90.2351 31.2317 90.4676 31.1531C90.5839 31.1138 90.6765 31.0823 90.7443 31.0591C90.7783 31.0475 90.806 31.038 90.8275 31.0306C90.8382 31.0269 90.8473 31.0238 90.8549 31.0212C90.8586 31.0199 90.862 31.0187 90.865 31.0177C90.8665 31.0172 90.8684 31.0165 90.8691 31.0163C90.871 31.0156 90.8727 31.015 85 14ZM42.5 4.97383C36.7174 4.97383 27.9948 3.26771 19.6247 1.07466C15.6734 0.039393 12.1819 -1.00046 9.68352 -1.78027C8.43897 -2.16874 7.4528 -2.48895 6.79299 -2.7068C6.46337 -2.81564 6.21607 -2.89864 6.05965 -2.95151C5.98146 -2.97794 5.92606 -2.99681 5.89453 -3.00758C5.87876 -3.01297 5.86897 -3.01633 5.86528 -3.01759C5.86344 -3.01823 5.86312 -3.01834 5.86435 -3.01791C5.86497 -3.0177 5.86597 -3.01736 5.86736 -3.01688C5.86805 -3.01664 5.86939 -3.01618 5.86973 -3.01606C5.87116 -3.01557 5.87269 -3.01504 0 14C-5.87269 31.015 -5.87096 31.0156 -5.86914 31.0163C-5.8684 31.0165 -5.86647 31.0172 -5.86498 31.0177C-5.86201 31.0187 -5.85864 31.0199 -5.85486 31.0212C-5.84732 31.0238 -5.83818 31.0269 -5.82747 31.0306C-5.80603 31.038 -5.77828 31.0475 -5.74435 31.0591C-5.67649 31.0823 -5.58388 31.1138 -5.46761 31.1531C-5.23512 31.2317 -4.9077 31.3414 -4.49416 31.478C-3.66764 31.7509 -2.49366 32.1318 -1.04289 32.5846C1.84938 33.4874 5.88908 34.691 10.5003 35.8992C19.2552 38.193 31.7826 40.9738 42.5 40.9738V4.97383Z" fill="black" mask="url(#path-2-inside-1)"/>
</svg> -->
<svg width="199" height="61" viewBox="0 0 199 61" fill="none" xmlns="http://www.w3.org/2000/svg">
<path d="M100.361 0.631836C95.3152 2.31617 90.012 3.10569 84.6924 2.96455C83.0263 2.93043 66.2256 2.59981 52.2439 2.96455C50.1382 3.01965 46.5797 3.15347 42.6868 5.08209C40.0922 6.38854 37.8006 8.22173 35.9591 10.4638C32.648 14.4155 30.5923 19.3853 28.7761 23.7778C25.6439 31.3585 23.9068 34.6804 20.4298 34.6804H11.1516V2.38727H0.546875V45.2524H20.4324C25.4518 45.2524 29.6447 43.0929 32.9085 38.8342C35.3406 35.6539 36.9909 31.6629 38.586 27.8135C42.242 18.9576 44.8583 13.5339 52.2466 13.5339H69.4789V45.2288H80.0942V13.5339H84.6477C86.427 13.5339 90.2199 13.0327 93.4468 11.0779C98.4846 8.02355 99.9849 2.31117 100.361 0.631836Z" fill="url(#paint0_linear_1821_9853)"/>
<path d="M51.8406 34.6804C50.4489 34.6819 49.0706 34.4091 47.7851 33.8777C46.4995 33.3463 45.332 32.5669 44.3496 31.5841C44.1966 31.4275 44.0071 31.3111 43.7979 31.2452C43.5888 31.1794 43.3666 31.1661 43.1511 31.2066C42.9356 31.2472 42.7335 31.3402 42.5628 31.4775C42.3921 31.6148 42.2582 31.7921 42.1729 31.9935C41.1691 34.4701 39.9905 36.8727 38.6459 39.1832C38.4791 39.4578 38.4191 39.7839 38.4773 40.0997C38.5355 40.4155 38.7079 40.699 38.9617 40.8966C42.1772 43.3531 46.0317 44.839 50.0685 45.178C54.1053 45.5171 58.1549 44.6951 61.7373 42.8095C61.8996 42.7264 62.0429 42.6106 62.1579 42.4694C62.273 42.3282 62.3573 42.1647 62.4056 41.9892C62.4539 41.8138 62.465 41.6302 62.4383 41.4503C62.4116 41.2703 62.3477 41.0978 62.2505 40.9438L58.0629 34.1688C57.8883 33.8914 57.6173 33.6878 57.3018 33.5968C56.9863 33.5058 56.6482 33.5338 56.352 33.6754C54.9406 34.3371 53.4002 34.6802 51.8406 34.6804Z" fill="url(#paint1_linear_1821_9853)"/>
<path d="M103.186 46.7665V2.88594C103.186 2.29293 103.205 1.69729 103.186 1.10428V1.02555C103.186 0.921165 103.145 0.821058 103.071 0.747244C102.997 0.673431 102.896 0.631958 102.792 0.631958C102.687 0.631958 102.586 0.673431 102.512 0.747244C102.438 0.821058 102.397 0.921165 102.397 1.02555V44.8956C102.397 45.4887 102.381 46.0843 102.397 46.6773C102.397 46.7036 102.397 46.7298 102.397 46.756C102.397 46.8604 102.438 46.9605 102.512 47.0343C102.586 47.1082 102.687 47.1496 102.792 47.1496C102.896 47.1496 102.997 47.1082 103.071 47.0343C103.145 46.9605 103.186 46.8604 103.186 46.756V46.7665Z" fill="#282B72"/>
<path d="M108.196 1.81315H110.401V9.53023H115.187V11.3198H108.196V1.81315Z" fill="#282B72"/>
<path d="M121.483 9.02495L122.615 10.2477C121.933 11.0218 120.909 11.4285 119.588 11.4285C117.053 11.4285 115.406 9.841 115.406 7.66573C115.406 5.49046 117.067 3.90297 119.33 3.90297C121.402 3.90297 123.105 5.26218 123.118 7.59751L117.696 8.6471C118.009 9.36869 118.688 9.73342 119.643 9.73342C119.982 9.74647 120.32 9.69036 120.637 9.56853C120.953 9.4467 121.241 9.26173 121.483 9.02495ZM117.49 7.45057L121.059 6.75784C120.959 6.38328 120.732 6.05459 120.417 5.82675C120.102 5.59892 119.719 5.48576 119.33 5.50621C118.256 5.50621 117.53 6.21206 117.49 7.45057Z" fill="#282B72"/>
<path d="M131.717 4.01568V11.3208H129.687V10.4811C129.161 11.1188 128.371 11.431 127.398 11.431C125.326 11.431 123.731 9.96421 123.731 7.66824C123.731 5.37227 125.326 3.90547 127.398 3.90547C127.806 3.88518 128.214 3.95377 128.593 4.10648C128.972 4.25918 129.313 4.49234 129.593 4.78975V4.01568H131.717ZM129.632 7.66824C129.632 6.40611 128.816 5.64516 127.766 5.64516C126.716 5.64516 125.884 6.40611 125.884 7.66824C125.884 8.93036 126.703 9.69394 127.766 9.69394C128.829 9.69394 129.632 8.93299 129.632 7.66824Z" fill="#282B72"/>
<path d="M138.23 3.90297V5.86045C138.054 5.84733 137.917 5.83158 137.754 5.83158C136.58 5.83158 135.803 6.47183 135.803 7.8704V11.3183H133.679V4.01318H135.709L135.558 5.45866C136.076 4.75281 137.098 3.90297 138.23 3.90297Z" fill="#282B72"/>
<path d="M131.239 20.2173V22.1748C131.062 22.1617 130.926 22.146 130.762 22.146C129.588 22.146 128.812 22.7862 128.812 24.1848V27.6327H126.688V20.3276H128.717L128.566 21.773C129.085 21.0672 130.107 20.2173 131.239 20.2173Z" fill="#282B72"/>
<path d="M147.7 7.13717V11.3198H145.563V7.46254C145.563 6.27913 145.018 5.73598 144.078 5.73598C143.054 5.73598 142.32 6.36048 142.32 7.70658V11.3198H140.193V4.01465H142.225L141.446 5.46008C141.759 5.13862 142.917 4.29649 143.334 4.13013C143.752 3.96377 144.2 3.88688 144.649 3.90444C146.392 3.90444 147.7 4.90943 147.7 7.13717Z" fill="#282B72"/>
<path d="M148.165 39.7426V43.9252H146.027V40.0679C146.027 38.8845 145.482 38.3414 144.543 38.3414C143.519 38.3414 142.785 38.9659 142.785 40.312V43.9252H140.658V36.6201H142.69L141.91 38.0655C142.224 37.744 143.381 36.9019 143.799 36.7355C144.216 36.5692 144.665 36.4923 145.114 36.5098C146.856 36.5098 148.165 37.5148 148.165 39.7426Z" fill="#282B72"/>
<path d="M149.446 1.81286C149.446 1.14638 149.972 0.632079 150.762 0.632079C151.552 0.632079 152.078 1.12014 152.078 1.77088C152.078 2.47935 151.552 2.99365 150.762 2.99365C149.972 2.99365 149.446 2.47935 149.446 1.81286ZM149.709 4.01438H151.836V11.3195H149.709V4.01438Z" fill="#282B72"/>
<path d="M161.702 6.98783V11.1704H159.575V7.3132C159.575 6.12981 159.031 5.58663 158.091 5.58663C157.07 5.58663 156.333 6.21116 156.333 7.55723V11.1704H154.206V3.86531H156.238L155.802 5.31074C156.116 4.98928 156.929 4.14715 157.347 3.98079C157.765 3.81443 158.213 3.73753 158.662 3.7551C160.394 3.7551 161.702 4.76012 161.702 6.98783Z" fill="#282B72"/>
<path d="M171.823 4.01318V10.0982C171.823 12.8166 170.351 14.0656 167.709 14.0656C166.319 14.0656 164.969 13.7245 164.111 13.0606L164.956 11.5387C165.709 12.0815 166.616 12.3718 167.546 12.3679C169.043 12.3679 169.699 11.6883 169.699 10.371V10.0588C169.399 10.3658 169.037 10.6055 168.637 10.7621C168.237 10.9186 167.809 10.9884 167.38 10.9667C165.35 10.9667 163.716 9.56811 163.716 7.43483C163.716 5.30155 165.35 3.90297 167.38 3.90297C168.404 3.90297 169.249 4.24408 169.807 4.95255V4.0158L171.823 4.01318ZM169.717 7.42433C169.717 6.35113 168.912 5.63216 167.796 5.63216C166.68 5.63216 165.861 6.35113 165.861 7.42433C165.861 8.49753 166.677 9.21912 167.796 9.21912C168.914 9.21912 169.725 8.50803 169.725 7.43483L169.717 7.42433Z" fill="#282B72"/>
<path d="M107.596 22.8662C107.596 20.0009 109.805 17.9489 112.774 17.9489C114.424 17.9489 115.8 18.5472 116.698 19.6335L115.282 20.9455C114.991 20.5937 114.624 20.3113 114.209 20.1188C113.794 19.9263 113.342 19.8286 112.884 19.8329C111.097 19.8329 109.831 21.082 109.831 22.8741C109.831 24.6663 111.097 25.9179 112.884 25.9179C113.343 25.9228 113.798 25.8238 114.213 25.6284C114.628 25.4329 114.994 25.1462 115.282 24.7896L116.698 26.1016C115.8 27.2037 114.424 27.8019 112.75 27.8019C109.805 27.7914 107.596 25.7526 107.596 22.8662Z" fill="#282B72"/>
<path d="M124.958 20.3169V27.6273H122.941V26.7561C122.655 27.0736 122.304 27.3256 121.911 27.4945C121.518 27.6635 121.093 27.7455 120.665 27.7349C118.822 27.7349 117.532 26.701 117.532 24.4471V20.3169H119.657V24.1348C119.657 25.3576 120.201 25.9007 121.141 25.9007C122.123 25.9007 122.831 25.2762 122.831 23.9301V20.3169H124.958Z" fill="#282B72"/>
<path d="M139.744 20.3169L136.652 27.6273H134.456L131.377 20.3169H133.572L135.601 25.2894L137.707 20.3169H139.744Z" fill="#282B72"/>
<path d="M145.675 25.3316L146.804 26.5543C146.125 27.3284 145.101 27.7351 143.78 27.7351C141.245 27.7351 139.597 26.145 139.597 23.9723C139.597 21.7997 141.258 20.2096 143.522 20.2096C145.593 20.2096 147.296 21.5662 147.309 23.9041L141.885 24.9537C142.198 25.6727 142.88 26.04 143.835 26.04C144.174 26.0531 144.512 25.997 144.828 25.8751C145.145 25.7533 145.433 25.5683 145.675 25.3316ZM141.682 23.7572L145.251 23.0644C145.15 22.6906 144.924 22.3625 144.61 22.1352C144.295 21.9078 143.912 21.795 143.525 21.8154C142.472 21.8154 141.722 22.5187 141.682 23.7546V23.7572Z" fill="#282B72"/>
<path d="M110.17 36.2134H107.12V34.4107H115.432V36.2029H112.379V43.92H110.17V36.2134Z" fill="#282B72"/>
<path d="M120.977 41.6339L122.109 42.8567C121.427 43.6308 120.406 44.0401 119.085 44.0401C116.55 44.0401 114.9 42.45 114.9 40.2747C114.9 38.0995 116.563 36.5093 118.824 36.5093C120.896 36.5093 122.599 37.8686 122.615 40.2065L117.19 41.2561C117.503 41.9777 118.185 42.3424 119.138 42.3424C119.476 42.3558 119.815 42.2998 120.131 42.178C120.447 42.0561 120.735 41.871 120.977 41.6339ZM116.984 40.0596L120.556 39.3668C120.455 38.9921 120.228 38.6633 119.912 38.4355C119.597 38.2077 119.213 38.0946 118.824 38.1152C117.761 38.1152 117.027 38.8211 116.984 40.0596Z" fill="#282B72"/>
<path d="M123.228 40.2731C123.228 38.0742 124.931 36.5103 127.316 36.5103C128.856 36.5103 130.069 37.1768 130.601 38.3733L128.95 39.255C128.798 38.9505 128.562 38.6949 128.271 38.5172C127.98 38.3396 127.644 38.247 127.303 38.25C126.226 38.25 125.381 38.9978 125.381 40.2731C125.381 41.5483 126.226 42.2988 127.303 42.2988C127.645 42.3046 127.981 42.2132 128.273 42.0352C128.565 41.8573 128.8 41.6001 128.95 41.2938L130.601 42.1886C130.074 43.3589 128.856 44.0385 127.316 44.0385C124.931 44.0385 123.228 42.4746 123.228 40.2731Z" fill="#282B72"/>
<path d="M138.994 39.7458V43.9311H136.87V40.0738C136.87 38.8904 136.325 38.3473 135.383 38.3473C134.362 38.3473 133.627 38.9718 133.627 40.3179V43.9311H131.501V33.8524H133.627V37.3843C133.938 37.092 134.304 36.8644 134.704 36.7149C135.104 36.5653 135.53 36.4967 135.957 36.5131C137.686 36.5105 138.994 37.5181 138.994 39.7458Z" fill="#282B72"/>
<path d="M149.328 40.2731C149.328 38.0742 151.031 36.5103 153.36 36.5103C155.689 36.5103 157.379 38.0847 157.379 40.2731C157.379 42.4615 155.689 44.0385 153.36 44.0385C151.031 44.0385 149.328 42.4746 149.328 40.2731ZM155.226 40.2731C155.226 39.011 154.423 38.25 153.36 38.25C152.297 38.25 151.481 39.011 151.481 40.2731C151.481 41.5352 152.297 42.2988 153.36 42.2988C154.423 42.2988 155.226 41.5378 155.226 40.2731Z" fill="#282B72"/>
<path d="M158.527 33.8524H160.651V43.9311H158.527V33.8524Z" fill="#282B72"/>
<path d="M161.812 40.2747C161.812 38.0837 163.528 36.5093 165.844 36.5093C168.16 36.5093 169.863 38.0837 169.863 40.2721C169.863 42.4605 168.174 44.0375 165.844 44.0375C163.515 44.0375 161.812 42.4762 161.812 40.2747ZM167.71 40.2747C167.71 39.0126 166.921 38.2517 165.844 38.2517C164.768 38.2517 163.965 39.0126 163.965 40.2747C163.965 41.5369 164.781 42.3004 165.844 42.3004C166.908 42.3004 167.71 41.5395 167.71 40.2747Z" fill="#282B72"/>
<path d="M178.574 36.6222V42.7072C178.574 45.4256 177.102 46.6746 174.457 46.6746C173.067 46.6746 171.72 46.3361 170.862 45.6696L171.707 44.1477C172.459 44.6913 173.365 44.9817 174.294 44.9769C175.794 44.9769 176.773 45.0479 176.773 43.7307V42.7494C176.474 43.0569 175.787 43.2156 175.388 43.3727C174.988 43.5297 174.56 43.5998 174.131 43.5783C172.101 43.5783 170.464 42.1771 170.464 40.0438C170.464 37.9105 172.101 36.5093 174.131 36.5093C175.155 36.5093 175.999 36.8505 176.557 37.5589V36.6222H178.574ZM176.468 40.0333C176.468 38.9601 175.663 38.2412 174.547 38.2412C173.431 38.2412 172.612 38.9601 172.612 40.0333C172.612 41.1065 173.428 41.8281 174.547 41.8281C175.665 41.8281 176.476 41.117 176.476 40.0438L176.468 40.0333Z" fill="#282B72"/>
<path d="M180.019 34.4095C180.019 33.743 180.545 33.2287 181.335 33.2287C182.124 33.2287 182.651 33.7168 182.651 34.3675C182.651 35.076 182.124 35.5903 181.335 35.5903C180.545 35.5903 180.019 35.0865 180.019 34.4095ZM180.282 36.611H182.406V43.9187H180.282V36.611Z" fill="#282B72"/>
<path d="M189.639 41.6339L190.77 42.8567C190.089 43.6308 189.067 44.0401 187.746 44.0401C185.211 44.0401 183.561 42.45 183.561 40.2747C183.561 38.0995 185.225 36.5093 187.48 36.5093C189.552 36.5093 191.257 37.8686 191.27 40.2065L185.846 41.2561C186.159 41.9777 186.841 42.3424 187.793 42.3424C188.133 42.3567 188.472 42.3011 188.79 42.1793C189.107 42.0574 189.396 41.8718 189.639 41.6339ZM185.648 40.0596L189.217 39.3668C189.116 38.9921 188.889 38.6633 188.574 38.4355C188.258 38.2077 187.874 38.0946 187.485 38.1152C186.427 38.1152 185.688 38.8211 185.638 40.0596H185.648Z" fill="#282B72"/>
<path d="M191.726 43.2509L192.434 41.729C193.204 42.1888 194.084 42.4335 194.981 42.4374C195.963 42.4374 196.332 42.175 196.332 41.7709C196.332 40.5744 191.902 41.7972 191.902 38.8846C191.902 37.4991 193.157 36.523 195.295 36.523C196.305 36.523 197.421 36.7539 198.116 37.1633L197.408 38.6694C196.766 38.3077 196.04 38.1204 195.303 38.1263C194.35 38.1263 193.942 38.4254 193.942 38.8059C193.942 40.0549 198.369 38.8478 198.369 41.7263C198.369 43.0856 197.103 44.0512 194.908 44.0512C193.66 44.0407 192.407 43.6996 191.726 43.2509Z" fill="#282B72"/>
<path d="M2.72626 60.137C2.35712 60.137 2.00217 60.0778 1.66142 59.9595C1.3254 59.8365 1.0651 59.6803 0.880527 59.491L1.0864 59.0863C1.26151 59.2567 1.49577 59.4011 1.7892 59.5194C2.08736 59.633 2.39971 59.6898 2.72626 59.6898C3.03862 59.6898 3.29182 59.6519 3.48586 59.5762C3.68463 59.4957 3.82897 59.3892 3.91889 59.2567C4.01355 59.1242 4.06087 58.9775 4.06087 58.8166C4.06087 58.6226 4.00408 58.4664 3.8905 58.3481C3.78165 58.2297 3.6373 58.1375 3.45746 58.0712C3.27762 58.0002 3.07885 57.9387 2.86114 57.8866C2.64344 57.8346 2.42574 57.7801 2.20804 57.7233C1.99034 57.6618 1.7892 57.5814 1.60462 57.482C1.42478 57.3826 1.27807 57.2524 1.16449 57.0915C1.05564 56.9259 1.00121 56.7106 1.00121 56.4455C1.00121 56.1994 1.0651 55.9746 1.19288 55.7711C1.3254 55.5629 1.52654 55.3972 1.7963 55.2742C2.06606 55.1464 2.41154 55.0825 2.83275 55.0825C3.11198 55.0825 3.38884 55.1227 3.66333 55.2032C3.93782 55.2789 4.17446 55.3854 4.37323 55.5227L4.19575 55.9415C3.98278 55.7995 3.75562 55.6954 3.51425 55.6291C3.27762 55.5629 3.04808 55.5298 2.82565 55.5298C2.52749 55.5298 2.28139 55.57 2.08736 55.6504C1.89332 55.7309 1.74897 55.8397 1.65432 55.977C1.5644 56.1095 1.51944 56.261 1.51944 56.4313C1.51944 56.6254 1.57386 56.7815 1.68271 56.8999C1.7963 57.0182 1.94301 57.1105 2.12285 57.1767C2.30742 57.243 2.50856 57.3021 2.72626 57.3542C2.94397 57.4063 3.1593 57.4631 3.37227 57.5246C3.58997 57.5861 3.78875 57.6666 3.96859 57.7659C4.15316 57.8606 4.29987 57.9884 4.40872 58.1493C4.52231 58.3102 4.5791 58.5208 4.5791 58.7811C4.5791 59.0225 4.51284 59.2473 4.38033 59.4555C4.24781 59.659 4.04431 59.8246 3.76982 59.9524C3.50005 60.0755 3.1522 60.137 2.72626 60.137Z" fill="#282B72"/>
<path d="M10.7072 60.137C10.073 60.137 9.57372 59.9548 9.2093 59.5904C8.84489 59.226 8.66268 58.6864 8.66268 57.9718V55.1251H9.18801V57.9505C9.18801 58.5374 9.32052 58.9704 9.58555 59.2496C9.85058 59.5289 10.2245 59.6685 10.7072 59.6685C11.1947 59.6685 11.5709 59.5289 11.8359 59.2496C12.101 58.9704 12.2335 58.5374 12.2335 57.9505V55.1251H12.7446V57.9718C12.7446 58.6864 12.5624 59.226 12.198 59.5904C11.8383 59.9548 11.3414 60.137 10.7072 60.137Z" fill="#282B72"/>
<path d="M19.4673 60.137C19.0934 60.137 18.7479 60.0755 18.4308 59.9524C18.1137 59.8246 17.8393 59.6472 17.6073 59.42C17.3755 59.1928 17.1932 58.9254 17.0607 58.6178C16.9329 58.3102 16.8691 57.9742 16.8691 57.6098C16.8691 57.2453 16.9329 56.9093 17.0607 56.6017C17.1932 56.2941 17.3755 56.0267 17.6073 55.7995C17.844 55.5723 18.1208 55.3972 18.4379 55.2742C18.755 55.1464 19.1005 55.0825 19.4744 55.0825C19.8341 55.0825 20.1725 55.144 20.4895 55.2671C20.8066 55.3854 21.074 55.5653 21.2917 55.8066L20.9581 56.1403C20.7546 55.932 20.5298 55.783 20.2837 55.693C20.0376 55.5984 19.7725 55.5511 19.4886 55.5511C19.1904 55.5511 18.9136 55.6031 18.658 55.7072C18.4024 55.8066 18.18 55.951 17.9907 56.1403C17.8014 56.3248 17.6523 56.5425 17.5435 56.7934C17.4393 57.0395 17.3873 57.3116 17.3873 57.6098C17.3873 57.9079 17.4393 58.1824 17.5435 58.4332C17.6523 58.6793 17.8014 58.897 17.9907 59.0863C18.18 59.2709 18.4024 59.4153 18.658 59.5194C18.9136 59.6188 19.1904 59.6685 19.4886 59.6685C19.7725 59.6685 20.0376 59.6211 20.2837 59.5265C20.5298 59.4318 20.7546 59.2804 20.9581 59.0722L21.2917 59.4058C21.074 59.6472 20.8066 59.8294 20.4895 59.9524C20.1725 60.0755 19.8317 60.137 19.4673 60.137Z" fill="#282B72"/>
<path d="M27.4473 60.137C27.0734 60.137 26.7279 60.0755 26.4108 59.9524C26.0937 59.8246 25.8192 59.6472 25.5873 59.42C25.3554 59.1928 25.1732 58.9254 25.0407 58.6178C24.9129 58.3102 24.849 57.9742 24.849 57.6098C24.849 57.2453 24.9129 56.9093 25.0407 56.6017C25.1732 56.2941 25.3554 56.0267 25.5873 55.7995C25.824 55.5723 26.1008 55.3972 26.4179 55.2742C26.735 55.1464 27.0805 55.0825 27.4544 55.0825C27.814 55.0825 28.1524 55.144 28.4695 55.2671C28.7866 55.3854 29.054 55.5653 29.2717 55.8066L28.9381 56.1403C28.7345 55.932 28.5097 55.783 28.2636 55.693C28.0176 55.5984 27.7525 55.5511 27.4686 55.5511C27.1704 55.5511 26.8935 55.6031 26.638 55.7072C26.3824 55.8066 26.16 55.951 25.9707 56.1403C25.7814 56.3248 25.6323 56.5425 25.5234 56.7934C25.4193 57.0395 25.3673 57.3116 25.3673 57.6098C25.3673 57.9079 25.4193 58.1824 25.5234 58.4332C25.6323 58.6793 25.7814 58.897 25.9707 59.0863C26.16 59.2709 26.3824 59.4153 26.638 59.5194C26.8935 59.6188 27.1704 59.6685 27.4686 59.6685C27.7525 59.6685 28.0176 59.6211 28.2636 59.5265C28.5097 59.4318 28.7345 59.2804 28.9381 59.0722L29.2717 59.4058C29.054 59.6472 28.7866 59.8294 28.4695 59.9524C28.1524 60.0755 27.8117 60.137 27.4473 60.137Z" fill="#282B72"/>
<path d="M33.8417 57.3471H36.4683V57.7943H33.8417V57.3471ZM33.8985 59.6401H36.8871V60.0944H33.3731V55.1251H36.7807V55.5794H33.8985V59.6401Z" fill="#282B72"/>
<path d="M42.4737 60.137C42.1045 60.137 41.7496 60.0778 41.4088 59.9595C41.0728 59.8365 40.8125 59.6803 40.6279 59.491L40.8338 59.0863C41.0089 59.2567 41.2432 59.4011 41.5366 59.5194C41.8347 59.633 42.1471 59.6898 42.4737 59.6898C42.786 59.6898 43.0392 59.6519 43.2332 59.5762C43.432 59.4957 43.5764 59.3892 43.6663 59.2567C43.7609 59.1242 43.8083 58.9775 43.8083 58.8166C43.8083 58.6226 43.7515 58.4664 43.6379 58.3481C43.529 58.2297 43.3847 58.1375 43.2048 58.0712C43.025 58.0002 42.8262 57.9387 42.6085 57.8866C42.3908 57.8346 42.1731 57.7801 41.9554 57.7233C41.7377 57.6618 41.5366 57.5814 41.352 57.482C41.1722 57.3826 41.0255 57.2524 40.9119 57.0915C40.803 56.9259 40.7486 56.7106 40.7486 56.4455C40.7486 56.1994 40.8125 55.9746 40.9403 55.7711C41.0728 55.5629 41.2739 55.3972 41.5437 55.2742C41.8134 55.1464 42.1589 55.0825 42.5801 55.0825C42.8594 55.0825 43.1362 55.1227 43.4107 55.2032C43.6852 55.2789 43.9218 55.3854 44.1206 55.5227L43.9431 55.9415C43.7302 55.7995 43.503 55.6954 43.2616 55.6291C43.025 55.5629 42.7955 55.5298 42.573 55.5298C42.2749 55.5298 42.0288 55.57 41.8347 55.6504C41.6407 55.7309 41.4964 55.8397 41.4017 55.977C41.3118 56.1095 41.2668 56.261 41.2668 56.4313C41.2668 56.6254 41.3213 56.7815 41.4301 56.8999C41.5437 57.0182 41.6904 57.1105 41.8702 57.1767C42.0548 57.243 42.256 57.3021 42.4737 57.3542C42.6914 57.4063 42.9067 57.4631 43.1197 57.5246C43.3374 57.5861 43.5361 57.6666 43.716 57.7659C43.9006 57.8606 44.0473 57.9884 44.1561 58.1493C44.2697 58.3102 44.3265 58.5208 44.3265 58.7811C44.3265 59.0225 44.2602 59.2473 44.1277 59.4555C43.9952 59.659 43.7917 59.8246 43.5172 59.9524C43.2474 60.0755 42.8996 60.137 42.4737 60.137Z" fill="#282B72"/>
<path d="M49.8228 60.137C49.4536 60.137 49.0987 60.0778 48.7579 59.9595C48.4219 59.8365 48.1616 59.6803 47.977 59.491L48.1829 59.0863C48.358 59.2567 48.5923 59.4011 48.8857 59.5194C49.1839 59.633 49.4962 59.6898 49.8228 59.6898C50.1351 59.6898 50.3883 59.6519 50.5824 59.5762C50.7811 59.4957 50.9255 59.3892 51.0154 59.2567C51.1101 59.1242 51.1574 58.9775 51.1574 58.8166C51.1574 58.6226 51.1006 58.4664 50.987 58.3481C50.8782 58.2297 50.7338 58.1375 50.554 58.0712C50.3741 58.0002 50.1754 57.9387 49.9577 57.8866C49.74 57.8346 49.5222 57.7801 49.3045 57.7233C49.0868 57.6618 48.8857 57.5814 48.7011 57.482C48.5213 57.3826 48.3746 57.2524 48.261 57.0915C48.1521 56.9259 48.0977 56.7106 48.0977 56.4455C48.0977 56.1994 48.1616 55.9746 48.2894 55.7711C48.4219 55.5629 48.623 55.3972 48.8928 55.2742C49.1626 55.1464 49.508 55.0825 49.9293 55.0825C50.2085 55.0825 50.4853 55.1227 50.7598 55.2032C51.0343 55.2789 51.271 55.3854 51.4697 55.5227L51.2923 55.9415C51.0793 55.7995 50.8521 55.6954 50.6108 55.6291C50.3741 55.5629 50.1446 55.5298 49.9222 55.5298C49.624 55.5298 49.3779 55.57 49.1839 55.6504C48.9898 55.7309 48.8455 55.8397 48.7508 55.977C48.6609 56.1095 48.6159 56.261 48.6159 56.4313C48.6159 56.6254 48.6704 56.7815 48.7792 56.8999C48.8928 57.0182 49.0395 57.1105 49.2194 57.1767C49.4039 57.243 49.6051 57.3021 49.8228 57.3542C50.0405 57.4063 50.2558 57.4631 50.4688 57.5246C50.6865 57.5861 50.8853 57.6666 51.0651 57.7659C51.2497 57.8606 51.3964 57.9884 51.5052 58.1493C51.6188 58.3102 51.6756 58.5208 51.6756 58.7811C51.6756 59.0225 51.6094 59.2473 51.4768 59.4555C51.3443 59.659 51.1408 59.8246 50.8663 59.9524C50.5966 60.0755 50.2487 60.137 49.8228 60.137Z" fill="#282B72"/>
<path d="M61.6068 60.0944V55.5794H59.8604V55.1251H63.8784V55.5794H62.1321V60.0944H61.6068Z" fill="#282B72"/>
<path d="M71.3339 55.1251H71.8521V60.0944H71.3339V55.1251ZM68.2246 60.0944H67.6992V55.1251H68.2246V60.0944ZM71.3836 57.8014H68.1678V57.34H71.3836V57.8014Z" fill="#282B72"/>
<path d="M76.4557 60.0944V55.1251H78.3156C78.7368 55.1251 79.0989 55.1937 79.4017 55.331C79.7046 55.4635 79.9365 55.6575 80.0975 55.9131C80.2631 56.1639 80.3459 56.4692 80.3459 56.8289C80.3459 57.1791 80.2631 57.482 80.0975 57.7375C79.9365 57.9884 79.7046 58.1824 79.4017 58.3197C79.0989 58.4522 78.7368 58.5184 78.3156 58.5184H76.7467L76.981 58.2771V60.0944H76.4557ZM79.849 60.0944L78.5712 58.2913H79.1391L80.424 60.0944H79.849ZM76.981 58.3197L76.7467 58.0712H78.3014C78.7983 58.0712 79.1746 57.9623 79.4301 57.7446C79.6904 57.5269 79.8206 57.2217 79.8206 56.8289C79.8206 56.4313 79.6904 56.1237 79.4301 55.906C79.1746 55.6883 78.7983 55.5794 78.3014 55.5794H76.7467L76.981 55.331V58.3197Z" fill="#282B72"/>
<path d="M86.7397 60.137C86.3658 60.137 86.0179 60.0755 85.6961 59.9524C85.379 59.8246 85.1022 59.6472 84.8655 59.42C84.6336 59.1881 84.4514 58.9207 84.3189 58.6178C84.1911 58.3102 84.1272 57.9742 84.1272 57.6098C84.1272 57.2453 84.1911 56.9117 84.3189 56.6088C84.4514 56.3012 84.6336 56.0338 84.8655 55.8066C85.1022 55.5747 85.379 55.3972 85.6961 55.2742C86.0132 55.1464 86.361 55.0825 86.7397 55.0825C87.1135 55.0825 87.459 55.1464 87.7761 55.2742C88.0932 55.3972 88.3677 55.5723 88.5996 55.7995C88.8362 56.0267 89.0184 56.2941 89.1462 56.6017C89.2787 56.9093 89.345 57.2453 89.345 57.6098C89.345 57.9742 89.2787 58.3102 89.1462 58.6178C89.0184 58.9254 88.8362 59.1928 88.5996 59.42C88.3677 59.6472 88.0932 59.8246 87.7761 59.9524C87.459 60.0755 87.1135 60.137 86.7397 60.137ZM86.7397 59.6685C87.0378 59.6685 87.3123 59.6188 87.5631 59.5194C87.8187 59.4153 88.0388 59.2709 88.2234 59.0863C88.4127 58.897 88.5594 58.6793 88.6635 58.4332C88.7676 58.1824 88.8197 57.9079 88.8197 57.6098C88.8197 57.3116 88.7676 57.0395 88.6635 56.7934C88.5594 56.5425 88.4127 56.3248 88.2234 56.1403C88.0388 55.951 87.8187 55.8066 87.5631 55.7072C87.3123 55.6031 87.0378 55.5511 86.7397 55.5511C86.4415 55.5511 86.1646 55.6031 85.9091 55.7072C85.6535 55.8066 85.4311 55.951 85.2418 56.1403C85.0572 56.3248 84.9105 56.5425 84.8016 56.7934C84.6975 57.0395 84.6455 57.3116 84.6455 57.6098C84.6455 57.9032 84.6975 58.1753 84.8016 58.4261C84.9105 58.677 85.0572 58.897 85.2418 59.0863C85.4311 59.2709 85.6535 59.4153 85.9091 59.5194C86.1646 59.6188 86.4415 59.6685 86.7397 59.6685Z" fill="#282B72"/>
<path d="M95.506 60.137C94.8718 60.137 94.3725 59.9548 94.0081 59.5904C93.6437 59.226 93.4615 58.6864 93.4615 57.9718V55.1251H93.9868V57.9505C93.9868 58.5374 94.1193 58.9704 94.3843 59.2496C94.6494 59.5289 95.0232 59.6685 95.506 59.6685C95.9934 59.6685 96.3697 59.5289 96.6347 59.2496C96.8997 58.9704 97.0322 58.5374 97.0322 57.9505V55.1251H97.5434V57.9718C97.5434 58.6864 97.3612 59.226 96.9968 59.5904C96.6371 59.9548 96.1401 60.137 95.506 60.137Z" fill="#282B72"/>
<path d="M104.287 60.137C103.909 60.137 103.559 60.0755 103.237 59.9524C102.92 59.8246 102.643 59.6472 102.406 59.42C102.174 59.1928 101.992 58.9254 101.86 58.6178C101.732 58.3102 101.668 57.9742 101.668 57.6098C101.668 57.2453 101.732 56.9093 101.86 56.6017C101.992 56.2941 102.177 56.0267 102.413 55.7995C102.65 55.5723 102.927 55.3972 103.244 55.2742C103.566 55.1464 103.916 55.0825 104.294 55.0825C104.673 55.0825 105.019 55.1417 105.331 55.26C105.648 55.3783 105.918 55.5582 106.14 55.7995L105.814 56.1332C105.605 55.9249 105.376 55.7759 105.125 55.6859C104.874 55.596 104.604 55.5511 104.316 55.5511C104.008 55.5511 103.724 55.6031 103.464 55.7072C103.208 55.8066 102.984 55.951 102.789 56.1403C102.6 56.3248 102.451 56.5425 102.342 56.7934C102.238 57.0395 102.186 57.3116 102.186 57.6098C102.186 57.9032 102.238 58.1753 102.342 58.4261C102.451 58.677 102.6 58.897 102.789 59.0863C102.984 59.2709 103.208 59.4153 103.464 59.5194C103.724 59.6188 104.006 59.6685 104.309 59.6685C104.593 59.6685 104.86 59.6259 105.111 59.5407C105.366 59.4555 105.601 59.3111 105.814 59.1076L106.112 59.5052C105.875 59.7134 105.598 59.872 105.281 59.9808C104.964 60.0849 104.633 60.137 104.287 60.137ZM105.608 59.4413V57.6098H106.112V59.5052L105.608 59.4413Z" fill="#282B72"/>
<path d="M114.215 55.1251H114.733V60.0944H114.215V55.1251ZM111.105 60.0944H110.58V55.1251H111.105V60.0944ZM114.265 57.8014H111.049V57.34H114.265V57.8014Z" fill="#282B72"/>
<path d="M124.176 60.0944V55.1251H124.701V60.0944H124.176Z" fill="#282B72"/>
<path d="M129.3 60.0944V55.1251H129.733L133.162 59.4413H132.935V55.1251H133.453V60.0944H133.02L129.598 55.7782H129.825V60.0944H129.3Z" fill="#282B72"/>
<path d="M138.056 60.0944V55.1251H138.489L141.918 59.4413H141.691V55.1251H142.209V60.0944H141.776L138.354 55.7782H138.582V60.0944H138.056Z" fill="#282B72"/>
<path d="M148.985 60.137C148.611 60.137 148.263 60.0755 147.941 59.9524C147.624 59.8246 147.348 59.6472 147.111 59.42C146.879 59.1881 146.697 58.9207 146.564 58.6178C146.436 58.3102 146.373 57.9742 146.373 57.6098C146.373 57.2453 146.436 56.9117 146.564 56.6088C146.697 56.3012 146.879 56.0338 147.111 55.8066C147.348 55.5747 147.624 55.3972 147.941 55.2742C148.259 55.1464 148.606 55.0825 148.985 55.0825C149.359 55.0825 149.704 55.1464 150.021 55.2742C150.339 55.3972 150.613 55.5723 150.845 55.7995C151.082 56.0267 151.264 56.2941 151.392 56.6017C151.524 56.9093 151.59 57.2453 151.59 57.6098C151.59 57.9742 151.524 58.3102 151.392 58.6178C151.264 58.9254 151.082 59.1928 150.845 59.42C150.613 59.6472 150.339 59.8246 150.021 59.9524C149.704 60.0755 149.359 60.137 148.985 60.137ZM148.985 59.6685C149.283 59.6685 149.558 59.6188 149.809 59.5194C150.064 59.4153 150.284 59.2709 150.469 59.0863C150.658 58.897 150.805 58.6793 150.909 58.4332C151.013 58.1824 151.065 57.9079 151.065 57.6098C151.065 57.3116 151.013 57.0395 150.909 56.7934C150.805 56.5425 150.658 56.3248 150.469 56.1403C150.284 55.951 150.064 55.8066 149.809 55.7072C149.558 55.6031 149.283 55.5511 148.985 55.5511C148.687 55.5511 148.41 55.6031 148.154 55.7072C147.899 55.8066 147.676 55.951 147.487 56.1403C147.303 56.3248 147.156 56.5425 147.047 56.7934C146.943 57.0395 146.891 57.3116 146.891 57.6098C146.891 57.9032 146.943 58.1753 147.047 58.4261C147.156 58.677 147.303 58.897 147.487 59.0863C147.676 59.2709 147.899 59.4153 148.154 59.5194C148.41 59.6188 148.687 59.6685 148.985 59.6685Z" fill="#282B72"/>
<path d="M157.017 60.0944L154.816 55.1251H155.384L157.442 59.8033H157.13L159.203 55.1251H159.735L157.535 60.0944H157.017Z" fill="#282B72"/>
<path d="M162.491 60.0944L164.762 55.1251H165.281L167.552 60.0944H166.998L164.911 55.4304H165.124L163.037 60.0944H162.491ZM163.385 58.7669L163.541 58.341H166.431L166.587 58.7669H163.385Z" fill="#282B72"/>
<path d="M172.072 60.0944V55.5794H170.325V55.1251H174.343V55.5794H172.597V60.0944H172.072Z" fill="#282B72"/>
<path d="M178.164 60.0944V55.1251H178.69V60.0944H178.164Z" fill="#282B72"/>
<path d="M185.46 60.137C185.086 60.137 184.738 60.0755 184.417 59.9524C184.1 59.8246 183.823 59.6472 183.586 59.42C183.354 59.1881 183.172 58.9207 183.039 58.6178C182.912 58.3102 182.848 57.9742 182.848 57.6098C182.848 57.2453 182.912 56.9117 183.039 56.6088C183.172 56.3012 183.354 56.0338 183.586 55.8066C183.823 55.5747 184.1 55.3972 184.417 55.2742C184.734 55.1464 185.082 55.0825 185.46 55.0825C185.834 55.0825 186.18 55.1464 186.497 55.2742C186.814 55.3972 187.088 55.5723 187.32 55.7995C187.557 56.0267 187.739 56.2941 187.867 56.6017C187.999 56.9093 188.066 57.2453 188.066 57.6098C188.066 57.9742 187.999 58.3102 187.867 58.6178C187.739 58.9254 187.557 59.1928 187.32 59.42C187.088 59.6472 186.814 59.8246 186.497 59.9524C186.18 60.0755 185.834 60.137 185.46 60.137ZM185.46 59.6685C185.758 59.6685 186.033 59.6188 186.284 59.5194C186.539 59.4153 186.759 59.2709 186.944 59.0863C187.133 58.897 187.28 58.6793 187.384 58.4332C187.488 58.1824 187.54 57.9079 187.54 57.6098C187.54 57.3116 187.488 57.0395 187.384 56.7934C187.28 56.5425 187.133 56.3248 186.944 56.1403C186.759 55.951 186.539 55.8066 186.284 55.7072C186.033 55.6031 185.758 55.5511 185.46 55.5511C185.162 55.5511 184.885 55.6031 184.63 55.7072C184.374 55.8066 184.152 55.951 183.962 56.1403C183.778 56.3248 183.631 56.5425 183.522 56.7934C183.418 57.0395 183.366 57.3116 183.366 57.6098C183.366 57.9032 183.418 58.1753 183.522 58.4261C183.631 58.677 183.778 58.897 183.962 59.0863C184.152 59.2709 184.374 59.4153 184.63 59.5194C184.885 59.6188 185.162 59.6685 185.46 59.6685Z" fill="#282B72"/>
<path d="M192.225 60.0944V55.1251H192.658L196.086 59.4413H195.859V55.1251H196.378V60.0944H195.944L192.523 55.7782H192.75V60.0944H192.225Z" fill="#282B72"/>
<defs>
<linearGradient id="paint0_linear_1821_9853" x1="0.546875" y1="30.3862" x2="198.374" y2="30.3862" gradientUnits="userSpaceOnUse">
<stop stop-color="#3052A2"/>
<stop offset="0.84" stop-color="#00A648"/>
</linearGradient>
<linearGradient id="paint1_linear_1821_9853" x1="-315.33" y1="-34.2095" x2="507.531" y2="-34.2095" gradientUnits="userSpaceOnUse">
<stop stop-color="#3052A2"/>
<stop offset="0.84" stop-color="#00A648"/>
</linearGradient>
</defs>
</svg>
